<?xml version="1.0"?>
<svg xmlns:rdf="http://www.w3.org/1999/02/22-rdf-syntax-ns#" xmlns="http://www.w3.org/2000/svg" xmlns:cc="http://web.resource.org/cc/" xmlns:xlink="http://www.w3.org/1999/xlink" xmlns:dc="http://purl.org/dc/elements/1.1/" xmlns:svg="http://www.w3.org/2000/svg" id="Layer_1" version="1.1" xml:space="preserve" viewBox="0 0 655.646 791.193" enable-background="new 0 0 655.646 791.193" y="0px" x="0px">
<linearGradient id="SVGID_1_" y2="-517.75" gradientUnits="userSpaceOnUse" y1="1108.1" x2="-349.56" x1="925.98">
	<stop stop-color="#FFC973" offset=".0056"/>
	<stop stop-color="#fff" offset=".5337"/>
	<stop stop-color="#FFA63F" offset=".9831"/>
</linearGradient>
<path stroke="#5A3D1B" stroke-width="2" d="m604.81 9.886c-7.065-11.623-61.938-22.537-71.669 48.729-165.95-3.374-239.22-42.729-270.72-26.23-178.49 59.997 167.24 260.24 28.5 398.98-80.996 40.498-209.99-100.5-277.07 52.497-28.916 95.995 0 149.99 0 149.99 226.07 313.49 797.8 169.5 590.96-623.96z" fill="url(#SVGID_1_)"/>
<linearGradient id="SVGID_2_" y2="402.94" gradientUnits="userSpaceOnUse" y1="402.94" x2="654.65" x1="13.852">
	<stop stop-color="#fff" offset="0"/>
	<stop stop-color="#FDFAF7" offset=".0113"/>
	<stop stop-color="#EFDBC4" offset=".0883"/>
	<stop stop-color="#E2BF95" offset=".1707"/>
	<stop stop-color="#D7A66D" offset=".2565"/>
	<stop stop-color="#CE924B" offset=".3467"/>
	<stop stop-color="#C78130" offset=".4425"/>
	<stop stop-color="#C1741B" offset=".5458"/>
	<stop stop-color="#BD6B0C" offset=".6604"/>
	<stop stop-color="#BB6603" offset=".7952"/>
	<stop stop-color="#BA6400" offset="1"/>
</linearGradient>
<path stroke="#5A3D1B" stroke-width="2" d="m610.35 24.128s3.679 5.346-2.5-0.834-58.522-6.766-44 60c-9 9 40.608 158.4 48 225 6.185 16.806-17.012 179.59-64.678 194.59 20.025 20.025 4.557 100.69-11.653 181.97 27.739-34.485 198.68-232.28 74.286-665.91-0.25-0.881-0.502-1.764-0.755-2.646-106.2-12-16.698 156 0 299-24.2 236-54.2 208-223.2 153-168-9-167.3 308.82-372 165.56 71.6 142.41 363.02 246.26 529.81 41.354" fill="url(#SVGID_2_)"/>
<path stroke="#000" d="m1.799 584.2c22.99-22.99 244.4-43.343 244.4-43.343l-88.769 79.495c-26.58 37.93-122.54 11.89-155.63-36.16z" fill="#FFDBA6"/>
<path stroke="#5A3D1B" stroke-width="2" d="m1.799 584.2s85.207 63.211 155.63 36.152c-33.23 42.89-116.88 17.24-155.63-36.15z" fill="#f90"/>
<path stroke="#754600" stroke-width="3" d="m257.49 784.87c-119.36-75.421-138.64-140.58-109.64-147.58" fill="none"/>
<path stroke="#734500" stroke-width="3" d="m517.28 702.75c34.433-43.54 52.986-178.88 31.406-200.46" fill="none"/>
<path stroke="#5A3D1B" stroke-width="2" d="m533.14 58.615c-11.627 90.437 93.722 193.68 0.713 411.68-71.667 71.667-167.93-145.06-393.46 174.46-143.53 14.48-138.59-60.56-138.59-60.56 7.064 42.035 12.053 37.047 12.053 49.654 11.634 19.973 55.172 56.428 134.59 27.904s62.42-114.52 192.42-164.52 242.84 126 270.29-154.37c23.319-243.07-126.18-309.67-2.098-326.57-10.18-24.542-69.91-25.535-75.91 42.325z" fill="#FFA33B"/>
<metadata><rdf:RDF><cc:Work><dc:format>image/svg+xml</dc:format><dc:type rdf:resource="http://purl.org/dc/dcmitype/StillImage"/><cc:license rdf:resource="http://creativecommons.org/licenses/publicdomain/"/><dc:publisher><cc:Agent rdf:about="http://openclipart.org/"><dc:title>Openclipart</dc:title></cc:Agent></dc:publisher><dc:title>Chair</dc:title><dc:date>2008-01-11T16:31:06</dc:date><dc:description>armchair, armchair, chair, chair, clip art, clipart, furniture, furniture, household, household, image, media, office, office, png, poltrona, poltrona, public domain, sedia, sedia, svg, </dc:description><dc:source>http://openclipart.org/detail/10967/chair-by-raffaella_biscuso</dc:source><dc:creator><cc:Agent><dc:title>raffaella_biscuso</dc:title></cc:Agent></dc:creator><dc:subject><rdf:Bag><rdf:li>armchair</rdf:li><rdf:li>chair</rdf:li><rdf:li>clip art</rdf:li><rdf:li>clipart</rdf:li><rdf:li>furniture</rdf:li><rdf:li>household</rdf:li><rdf:li>image</rdf:li><rdf:li>media</rdf:li><rdf:li>office</rdf:li><rdf:li>png</rdf:li><rdf:li>poltrona</rdf:li><rdf:li>public domain</rdf:li><rdf:li>sedia</rdf:li><rdf:li>svg</rdf:li></rdf:Bag></dc:subject></cc:Work><cc:License rdf:about="http://creativecommons.org/licenses/publicdomain/"><cc:permits rdf:resource="http://creativecommons.org/ns#Reproduction"/><cc:permits rdf:resource="http://creativecommons.org/ns#Distribution"/><cc:permits rdf:resource="http://creativecommons.org/ns#DerivativeWorks"/></cc:License></rdf:RDF></metadata></svg>
